{"title":"Mr Pickles S02E04 Shovenpucker 1080p WEB-DL DD5 1 H 264-BTN mkv","uid":14580312,"size":462332652,"categoryP":"video","categoryS":"hd___tv_shows","magnet":"?xt=urn:btih:210dc9db2c753669aabcf7e3a7d224dfa231d861&amp;dn=Mr+Pickles+S02E04+Shovenpucker+1080p+WEB-DL+DD5+1+H+264-BTN+mkv&amp;tr=udp%3A%2F%2Ftracker.leechers-paradise.org%3A6969&amp;tr=udp%3A%2F%2Fzer0day.ch%3A1337&amp;tr=udp%3A%2F%2Fopen.demonii.com%3A1337&amp;tr=udp%3A%2F%2Ftracker.coppersurfer.tk%3A6969&amp;tr=udp%3A%2F%2Fexodus.desync.com%3A6969","seeders":0,"leechers":2,"uploader":"Anon_up","files":1,"time":1462867425,"description":"[center][img]https://i.imgur.com/p94fYT2.png[/img]\r\n\r\nScreenShots\r\n[img]https://i.imgur.com/gOZRr2K.jpg[/img]\r\n\r\nInfo[quote]\r\nShovenpucker\r\n\r\nWith a metal thief loose in Old Town, Tommy and Mr. Pickles seek the help of an Old Super Hero, who they come to find has a strange addiction.\r\n\r\nCredits to BTN\r\n\r\nTorrent by RnC\r\n\r\nUse Torrent\r\nand a client that supports HTTPS Seeding\r\nSeed for others\r\n\r\n[/quote]\r\n\r\n\r\n\r\n[spoiler=&quot;MediaInfo&quot;]\r\n\r\nGeneral \r\nUnique ID : 178347831579462288814538812722090848118 (0x862C8AFDD2DBD44D9CE5D6D69EA7AF76) \r\nComplete name : Mr.Pickles.S02E04.Shovenpucker.1080p.WEB-DL.DD5.1.H.264-BTN.mkv \r\nFormat : Matroska \r\nFormat version : Version 4 / Version 2 \r\nFile size : 441 MiB \r\nDuration : 11mn 16s \r\nOverall bit rate : 5 468 Kbps \r\nEncoded date : UTC 2016-05-09 20:27:03 \r\nWriting application : mkvmerge v9.1.0 ('Little Earthquakes') 64bit \r\nWriting library : libebml v1.3.3 + libmatroska v1.4.4 \r\n\r\nVideo \r\nID : 1 \r\nFormat : AVC \r\nFormat/Info : Advanced Video Codec \r\nFormat profile :    \r\nFormat settings, CABAC : Yes \r\nFormat settings, ReFrames : 4 frames \r\nCodec ID : V_MPEG4/ISO/AVC \r\nDuration : 11mn 16s \r\nBit rate : 5 081 Kbps \r\nWidth : 1 916 pixels \r\nHeight : 1 076 pixels \r\nDisplay aspect ratio : 16:9 \r\nFrame rate mode : Constant \r\nFrame rate : 23.976 (24000/1001) fps \r\nColor space : YUV \r\nChroma subsampling : 4:2:0 \r\nBit depth : 8 bits \r\nScan type : Progressive \r\nBits/(Pixel*Frame) : 0.103 \r\nStream size : 410 MiB (93%) \r\nLanguage : English \r\nDefault : Yes \r\nForced : No \r\nColor range : Limited \r\nColor primaries : BT.709 \r\nTransfer characteristics : BT.709 \r\nMatrix coefficients : BT.709 \r\n\r\nAudio \r\nID : 2 \r\nFormat : AC-3 \r\nFormat/Info : Audio Coding 3 \r\nMode extension : CM (complete main) \r\nFormat settings, Endianness : Big \r\nCodec ID : A_AC3 \r\nDuration : 11mn 16s \r\nBit rate mode : Constant \r\nBit rate : 384 Kbps \r\nChannel(s) : 6 channels \r\nChannel positions : Front: L C R, Side: L R, LFE \r\nSampling rate : 48.0 KHz \r\nFrame rate : 31.250 fps (1536 spf) \r\nCompression mode : Lossy \r\nStream size : 31.0 MiB (7%) \r\nLanguage : English \r\nDefault : Yes \r\nForced : No \r\n\r\nText \r\nID : 3 \r\nFormat : UTF-8 \r\nCodec ID : S_TEXT/UTF8 \r\nCodec ID/Info : UTF-8 Plain Text \r\nDuration : 11mn 6s \r\nBit rate : 76 bps \r\nCount of elements : 252 \r\nStream size : 6.21 KiB (0%) \r\nLanguage : English \r\nDefault : No \r\nForced : No \r\n\r\n\r\n\r\n[/spoiler]\r\n\r\nIf you like my encodes/uploads\r\n[color=orange]Donate Bitcoin :[/color] [color=green]1PWLan3jUdKdofaXUuRHMEM6m17E9v2fP6[/color]\r\n\r\n[/center]","torrent":{"xt":"urn:btih:210dc9db2c753669aabcf7e3a7d224dfa231d861","amp;dn":"Mr+Pickles+S02E04+Shovenpucker+1080p+WEB-DL+DD5+1+H+264-BTN+mkv","amp;tr":["udp%3A%2F%2Ftracker.leechers-paradise.org%3A6969","udp%3A%2F%2Fzer0day.ch%3A1337","udp%3A%2F%2Fopen.demonii.com%3A1337","udp%3A%2F%2Ftracker.coppersurfer.tk%3A6969","udp%3A%2F%2Fexodus.desync.com%3A6969"],"infoHash":"210dc9db2c753669aabcf7e3a7d224dfa231d861","infoHashBuffer":{"type":"Buffer","data":[33,13,201,219,44,117,54,105,170,188,247,227,167,210,36,223,162,49,216,97]},"announce":[],"urlList":[]}}